<svg xmlns="http://www.w3.org/2000/svg" viewBox="0.006 0 119.455 117.52" data-layer-role="icon">
  <path class="cls-1" d="M76.88.66a22.9 22.9 0 0 1 7.41 1.19A35 35 0 0 1 91.19 5a43.4 43.4 0 0 1 11.56 10.09A44.5 44.5 0 0 1 110.24 29a51 51 0 0 1 1.88 7.91 59 59 0 0 1 .61 8.27 45.6 45.6 0 0 1-2.67 17.07 30.2 30.2 0 0 1-4.38 7.69 31.7 31.7 0 0 1-6.38 6.13 33.87 33.87 0 0 1-16 6.46 29 29 0 0 1-8.43-.19 22.3 22.3 0 0 1-7.8-2.79V77.9c2.3-1.48 4.36-2.75 6.24-4.08s3.59-2.65 5.16-4a62.5 62.5 0 0 0 8-8.15c1.13-1.39 2.17-2.8 3.24-4.17L93 53.36a29.6 29.6 0 0 0 5.55-9.8 25.6 25.6 0 0 0 .94-5.83 30.5 30.5 0 0 0-.23-6 39 39 0 0 0-3.78-11.84 43 43 0 0 0-3.31-5.53 38.6 38.6 0 0 0-4.25-5 30.5 30.5 0 0 0-5.14-4.19 26 26 0 0 0-2.94-1.67 24 24 0 0 0-3.15-1.2Z" data-layer-id="7742352849308" style="fill:#5865f3;fill-opacity:1" />
  <path class="cls-1" d="M11.49 23a23.1 23.1 0 0 1 3.42-6.68A35.2 35.2 0 0 1 20 10.7a43.3 43.3 0 0 1 13.2-7.88A44.2 44.2 0 0 1 48.76 0a51.4 51.4 0 0 1 8.1.65 58 58 0 0 1 8 2 45.7 45.7 0 0 1 15.41 7.81 30.5 30.5 0 0 1 6 6.54 32.3 32.3 0 0 1 3.85 8 33.9 33.9 0 0 1 1.2 17.21 29.2 29.2 0 0 1-2.78 8 22.3 22.3 0 0 1-5.06 6.55l-1.57-.51c-.7-2.64-1.27-5-2-7.2s-1.41-4.22-2.18-6.13a63 63 0 0 0-5.27-10.13c-1-1.51-2-2.93-3-4.38l-3-4.37a29.8 29.8 0 0 0-7.6-8.3A25.6 25.6 0 0 0 53.72 13a30 30 0 0 0-5.8-1.65 39 39 0 0 0-12.43-.07 42.5 42.5 0 0 0-6.28 1.45 38 38 0 0 0-6.05 2.5 30.6 30.6 0 0 0-5.57 3.59A27 27 0 0 0 15.11 21 22.5 22.5 0 0 0 13 23.66Z" data-layer-id="504725849322" style="fill:#5865f3;fill-opacity:1" />
  <path class="cls-1" d="M12.5 92a22.8 22.8 0 0 1-5.29-5.31 35 35 0 0 1-3.74-6.6A43.3 43.3 0 0 1 .05 65.18a44.4 44.4 0 0 1 2.12-15.67A50.5 50.5 0 0 1 5.3 42a59 59 0 0 1 4.37-7 45.6 45.6 0 0 1 12.19-12.28 30.1 30.1 0 0 1 8.06-3.66 32.2 32.2 0 0 1 8.77-1.2A33.9 33.9 0 0 1 55.42 22a29.3 29.3 0 0 1 6.71 5.1A22.5 22.5 0 0 1 66.8 34l-1 1.33c-2.73-.15-5.14-.33-7.45-.36s-4.46 0-6.51.18A62.5 62.5 0 0 0 40.61 37c-1.74.46-3.41 1-5.08 1.48L30.46 40a29.9 29.9 0 0 0-10.25 4.67A25.7 25.7 0 0 0 16 48.78a29.5 29.5 0 0 0-3.36 5 38.7 38.7 0 0 0-3.88 11.81A43 43 0 0 0 8.19 72a39 39 0 0 0 .51 6.54A30.6 30.6 0 0 0 10.4 85a26 26 0 0 0 1.38 3 23 23 0 0 0 1.84 2.82Z" data-layer-id="5394770549337" style="fill:#5865f3;fill-opacity:1" />
  <path class="cls-1" d="M78.51 112.43a23 23 0 0 1-6.69 3.39 34.6 34.6 0 0 1-7.43 1.52A43.1 43.1 0 0 1 49.11 116a44.1 44.1 0 0 1-14.24-6.86 51 51 0 0 1-6.18-5.29 59 59 0 0 1-5.35-6.34 45.6 45.6 0 0 1-7.87-15.37 30.4 30.4 0 0 1-1-8.8 32.2 32.2 0 0 1 1.57-8.71A33.93 33.93 0 0 1 25.19 50a29 29 0 0 1 6.92-4.8 22.2 22.2 0 0 1 8-2.33l1 1.33c-1 2.55-1.91 4.79-2.65 7s-1.46 4.21-1.91 6.2a62 62 0 0 0-1.69 11.29c-.1 1.8-.11 3.55-.17 5.29l-.17 5.28a29.7 29.7 0 0 0 1.27 11.18 25.4 25.4 0 0 0 2.67 5.27 30.2 30.2 0 0 0 3.73 4.75 39 39 0 0 0 10 7.36 43 43 0 0 0 5.93 2.52 38 38 0 0 0 6.37 1.53 30 30 0 0 0 6.62.37 25 25 0 0 0 3.33-.37 22.4 22.4 0 0 0 3.26-.87Z" data-layer-id="106336949353" style="fill:#5865f3;fill-opacity:1" />
  <path class="cls-1" d="M118.3 56a23.5 23.5 0 0 1 1.16 7.42 35.5 35.5 0 0 1-.86 7.53 43.1 43.1 0 0 1-6 14.11 44.2 44.2 0 0 1-10.93 11.43 51 51 0 0 1-6.94 4.24A59 59 0 0 1 87 103.8a45.5 45.5 0 0 1-17 2.74 30.3 30.3 0 0 1-8.67-1.78 32.2 32.2 0 0 1-7.8-4.18 33.9 33.9 0 0 1-11.1-13.21A28.9 28.9 0 0 1 40 79.3a22.2 22.2 0 0 1 .24-8.3l1.57-.51c2.12 1.74 4 3.3 5.81 4.68s3.63 2.59 5.37 3.67A62.4 62.4 0 0 0 63.21 84c1.68.65 3.34 1.21 5 1.8l5 1.79a29.7 29.7 0 0 0 11 2.25 26 26 0 0 0 5.79-.96 30.4 30.4 0 0 0 5.67-2.08 38.8 38.8 0 0 0 10.09-7.25 42 42 0 0 0 4.24-4.86 38 38 0 0 0 3.43-5.58 30 30 0 0 0 2.39-6.18 24.5 24.5 0 0 0 .68-3.28 24 24 0 0 0 .17-3.37Z" data-layer-id="1957982449367" style="fill:#5865f3;fill-opacity:1" />
</svg>